<svg width="94" height="27" viewBox="0 0 94 27" fill="none" xmlns="http://www.w3.org/2000/svg">
<path d="M37.3438 16.0039C37.226 15.8196 37.1176 15.7794 36.8907 15.7794H32.7977L32.7174 15.6973L32.7755 6.34078C32.7755 6.21672 32.6773 6.11626 32.5562 6.11626H30.5937C30.4726 6.11626 30.3744 6.21672 30.3744 6.34078L30.3164 17.7591C30.3164 17.8831 30.4145 17.9836 30.5357 17.9836H38.1304C38.1851 17.9836 38.2857 17.9836 38.3241 17.8953C38.3591 17.8132 38.3352 17.7398 38.2849 17.6455L37.3438 16.0039Z" fill="white"/>
<path d="M45.8449 9.9104C45.5334 9.59153 45.1324 9.34342 44.652 9.17132C44.1691 8.99921 43.5761 8.91185 42.8901 8.91185C42.146 8.91185 41.5027 8.97999 40.9797 9.11366C40.5291 9.22898 40.0897 9.37487 39.6699 9.54872C39.5906 9.58192 39.5496 9.67365 39.5769 9.75752L40.0607 11.2698C40.0889 11.3589 40.1844 11.4043 40.2706 11.3737C40.5991 11.2558 40.9165 11.1614 41.2177 11.0924C41.5931 11.0068 42.0334 10.9631 42.5249 10.9631C43.1742 10.9631 43.6725 11.1134 44.0087 11.4087C44.3474 11.7074 44.5189 12.1478 44.5189 12.7147V12.8676L44.4123 12.9454C44.094 12.8336 43.7647 12.7427 43.4327 12.6754C43.1008 12.609 42.7058 12.575 42.2587 12.575C41.7356 12.575 41.2527 12.6344 40.8235 12.7514C40.3969 12.8676 40.0257 13.0432 39.7186 13.2747C39.4139 13.5045 39.1733 13.798 39.0018 14.1484C38.8312 14.4987 38.7441 14.9215 38.7441 15.4064V15.4405C38.7441 15.8808 38.8226 16.273 38.9779 16.6067C39.1324 16.9405 39.3465 17.2261 39.6145 17.4568C39.8824 17.6874 40.2006 17.8621 40.5599 17.9783C40.9225 18.0945 41.3141 18.1531 41.7254 18.1531C42.3312 18.1531 42.8517 18.05 43.2715 17.8455C43.693 17.6411 44.059 17.3633 44.3611 17.0208L44.501 17.0759V17.815C44.501 17.9067 44.5735 17.9818 44.664 17.9818H46.6239C46.7135 17.9818 46.7869 17.9076 46.7869 17.815V12.7654C46.7869 12.1635 46.7101 11.6131 46.5582 11.1291C46.4063 10.6504 46.1666 10.2398 45.8449 9.9104ZM44.5514 14.8446C44.5514 15.3452 44.3594 15.7567 43.9805 16.0677C43.6068 16.3735 43.1059 16.529 42.4908 16.529C42.0641 16.529 41.7126 16.4259 41.4447 16.2232C41.1691 16.0144 41.0291 15.7174 41.0291 15.3391V15.305C41.0291 14.8691 41.1981 14.531 41.53 14.2995C41.8525 14.075 42.2988 13.9614 42.8568 13.9614C43.1708 13.9614 43.4703 13.9937 43.7476 14.0575C44.024 14.1213 44.2783 14.206 44.5036 14.31L44.5514 14.3851V14.8446Z" fill="white"/>
<path d="M58.7129 8.84371C58.1182 8.84371 57.5815 8.96514 57.1182 9.20364C56.6532 9.44301 56.2257 9.80295 55.846 10.2721L55.7121 10.2572C55.4877 9.80557 55.1651 9.45262 54.7539 9.20976C54.3409 8.96689 53.8417 8.84283 53.2709 8.84283C52.9586 8.84283 52.6728 8.88215 52.4202 8.9599C52.1677 9.03765 51.9373 9.14424 51.7334 9.27615C51.5277 9.41069 51.3392 9.56532 51.1736 9.73655C51.0055 9.90953 50.8485 10.0939 50.7061 10.2861L50.561 10.2363V9.18005C50.561 9.08832 50.4885 9.01319 50.398 9.01319H48.3554C48.2658 9.01319 48.1924 9.08745 48.1924 9.18005V17.8141C48.1924 17.9058 48.2649 17.981 48.3554 17.981H50.398C50.4876 17.981 50.561 17.9067 50.561 17.8141V12.9812C50.561 12.3513 50.7052 11.8665 50.9893 11.5415C51.2752 11.213 51.6736 11.0461 52.1728 11.0461C52.6728 11.0461 53.0627 11.213 53.3323 11.5432C53.5986 11.8682 53.7342 12.3522 53.7342 12.9812V17.8141C53.7342 17.9058 53.8068 17.981 53.8972 17.981H55.9399C56.0295 17.981 56.1028 17.9067 56.1028 17.8141V12.9812C56.1028 12.3513 56.247 11.8665 56.5312 11.5415C56.8179 11.213 57.2155 11.0461 57.7146 11.0461C58.2146 11.0461 58.6046 11.213 58.8742 11.5432C59.1404 11.8682 59.2761 12.3522 59.2761 12.9812V17.8141C59.2761 17.9058 59.3486 17.981 59.439 17.981H61.4817C61.5713 17.981 61.6447 17.9067 61.6447 17.8141V12.1172C61.6447 11.0426 61.3836 10.2188 60.8682 9.67016C60.3546 9.12239 59.6293 8.84371 58.7129 8.84371Z" fill="white"/>
<path d="M90.1317 11.13C89.9806 10.6504 89.7409 10.2406 89.4192 9.91129C89.1078 9.59242 88.7067 9.34431 88.2264 9.1722C87.7434 9.0001 87.1504 8.91273 86.4644 8.91273C85.7204 8.91273 85.077 8.98088 84.554 9.11454C84.1035 9.22986 83.6641 9.37576 83.2443 9.54961C83.1649 9.58281 83.1239 9.67454 83.1513 9.7584L83.635 11.2706C83.6632 11.3598 83.7588 11.4052 83.8449 11.3746C84.1734 11.2567 84.4909 11.1623 84.792 11.0933C85.1675 11.0077 85.6078 10.964 86.0992 10.964C86.7485 10.964 87.2477 11.1143 87.583 11.4096C87.9218 11.7083 88.0933 12.1486 88.0933 12.7156V12.8685L87.9866 12.9463C87.6683 12.8344 87.339 12.7436 87.0071 12.6763C86.6752 12.6099 86.2801 12.5758 85.833 12.5758C85.3091 12.5758 84.827 12.6353 84.3978 12.7523C83.9712 12.8685 83.6001 13.0441 83.2937 13.2756C82.9891 13.5054 82.7485 13.7989 82.577 14.1492C82.4064 14.4996 82.3193 14.9224 82.3193 15.4073V15.4413C82.3193 15.8816 82.3978 16.2739 82.5531 16.6076C82.7076 16.9413 82.9217 17.227 83.1896 17.4577C83.4576 17.6883 83.7758 17.863 84.135 17.9792C84.4977 18.0954 84.8893 18.1539 85.3006 18.1539C85.9064 18.1539 86.4269 18.0509 86.8467 17.8464C87.2682 17.642 87.6342 17.3642 87.9363 17.0217L88.0762 17.0768V17.8158C88.0762 17.9076 88.1487 17.9827 88.2392 17.9827H90.1991C90.2887 17.9827 90.3621 17.9085 90.3621 17.8158V12.7663C90.3612 12.1635 90.2835 11.6131 90.1317 11.13ZM88.1257 14.8446C88.1257 15.3452 87.9337 15.7567 87.5549 16.0677C87.1811 16.3735 86.6803 16.529 86.0651 16.529C85.6385 16.529 85.2869 16.4259 85.019 16.2232C84.7434 16.0144 84.6035 15.7174 84.6035 15.3391V15.305C84.6035 14.8691 84.7724 14.531 85.1043 14.2995C85.4269 14.075 85.8731 13.9614 86.4311 13.9614C86.7451 13.9614 87.0446 13.9937 87.3219 14.0575C87.5984 14.1213 87.8526 14.206 88.0779 14.31L88.1257 14.3851V14.8446Z" fill="white"/>
<path d="M70.5493 10.0546C70.2045 9.66144 69.8035 9.36091 69.3581 9.1626C68.911 8.96341 68.4434 8.86207 67.9673 8.86207C67.3607 8.86207 66.8521 8.99836 66.4545 9.26743C66.0535 9.53913 65.7062 9.89033 65.4221 10.3114L65.2856 10.2625V6.284C65.2856 6.19227 65.2173 6.11714 65.1328 6.11714H63.2182C63.1337 6.11714 63.0654 6.1914 63.0654 6.284V17.8159C63.0654 17.9076 63.1337 17.9827 63.2182 17.9827H65.1328C65.2173 17.9827 65.2856 17.9085 65.2856 17.8159V16.8898L65.4187 16.8365C65.6926 17.1912 66.0356 17.5066 66.4375 17.7731C66.8342 18.0369 67.3487 18.1697 67.9665 18.1697C68.4537 18.1697 68.9264 18.0683 69.3735 17.8691C69.8189 17.67 70.2165 17.3703 70.5561 16.9772C70.8957 16.584 71.1747 16.0939 71.3829 15.5208C71.5911 14.9477 71.6977 14.2785 71.6977 13.5325V13.4984C71.6977 12.7523 71.5919 12.0831 71.3829 11.51C71.1747 10.9378 70.894 10.4477 70.5493 10.0546ZM69.3718 13.5325C69.3718 13.9274 69.3163 14.2873 69.2071 14.6018C69.0979 14.9172 68.9469 15.1924 68.7591 15.4204C68.5706 15.6493 68.3504 15.8275 68.1039 15.9507C67.8573 16.0738 67.5885 16.1368 67.3061 16.1368C67.0228 16.1368 66.7549 16.0738 66.5083 15.9507C66.2617 15.8275 66.0433 15.6484 65.8598 15.4195C65.6772 15.1915 65.5288 14.9128 65.4204 14.5931C65.3112 14.2724 65.2557 13.916 65.2557 13.5325V13.4984C65.2557 13.1158 65.3112 12.7593 65.4204 12.4378C65.5296 12.1172 65.6772 11.8394 65.8598 11.6114C66.0433 11.3825 66.2617 11.2034 66.5083 11.0802C66.7549 10.957 67.0228 10.8941 67.3061 10.8941C67.5893 10.8941 67.8573 10.957 68.1039 11.0802C68.3504 11.2034 68.5706 11.3825 68.7591 11.6105C68.9469 11.8385 69.0979 12.1172 69.2071 12.4378C69.3163 12.7584 69.3718 13.1149 69.3718 13.4984V13.5325Z" fill="white"/>
<path d="M81.1778 6.11714H79.2631C79.1787 6.11714 79.1104 6.1914 79.1104 6.284V10.2616C78.9568 10.3132 78.95 10.2747 78.9372 10.2564C78.6599 9.85888 78.3254 9.52603 77.9423 9.26656C77.5455 8.99748 77.037 8.8612 76.4295 8.8612C75.9534 8.8612 75.4849 8.96254 75.0387 9.16173C74.5933 9.36091 74.1923 9.66057 73.8476 10.0537C73.5029 10.4477 73.2213 10.9369 73.0131 11.5092C72.804 12.0823 72.6982 12.7515 72.6982 13.4975V13.5316C72.6982 14.2777 72.804 14.9469 73.0131 15.52C73.2221 16.0931 73.5003 16.5832 73.8399 16.9763C74.1795 17.3686 74.5771 17.6691 75.0225 17.8683C75.4696 18.0675 75.9423 18.1688 76.4295 18.1688C77.0472 18.1688 77.5617 18.0351 77.9585 17.7722C78.3604 17.5057 78.7034 17.1903 78.9773 16.8357L79.1104 16.8889V17.815C79.1104 17.9067 79.1787 17.9818 79.2631 17.9818H81.1778C81.2623 17.9818 81.3305 17.9076 81.3305 17.815V6.28313C81.3305 6.1914 81.2623 6.11714 81.1778 6.11714ZM79.1411 13.5325C79.1411 13.9151 79.0857 14.2716 78.9764 14.5931C78.8672 14.9128 78.7196 15.1915 78.537 15.4195C78.3536 15.6484 78.1351 15.8275 77.8885 15.9507C77.642 16.0738 77.3732 16.1368 77.0908 16.1368C76.8083 16.1368 76.5396 16.0738 76.293 15.9507C76.0464 15.8275 75.8262 15.6484 75.6377 15.4204C75.45 15.1924 75.2989 14.9172 75.1897 14.6018C75.0805 14.2873 75.025 13.9274 75.025 13.5325V13.4984C75.025 13.1149 75.0805 12.7584 75.1897 12.4378C75.2989 12.1172 75.45 11.8385 75.6377 11.6105C75.8262 11.3816 76.0464 11.2034 76.293 11.0802C76.5396 10.957 76.8083 10.8941 77.0908 10.8941C77.374 10.8941 77.6428 10.957 77.8885 11.0802C78.1351 11.2034 78.3536 11.3825 78.537 11.6114C78.7196 11.8394 78.8681 12.1172 78.9764 12.4378C79.0857 12.7593 79.1411 13.1158 79.1411 13.4984V13.5325Z" fill="white"/>
<path d="M24.037 0.918186L3.65889 0.917313C3.41145 0.917313 3.21094 1.12698 3.21094 1.3847V17.5974C3.21094 17.7486 3.2809 17.891 3.39951 17.9783L13.4388 25.682C13.5591 25.7711 13.6999 25.8156 13.8398 25.8156L13.8407 25.8165C13.9815 25.8165 14.1214 25.772 14.2417 25.6828L24.2964 17.9792C24.415 17.8919 24.485 17.7495 24.485 17.5983V1.38558C24.485 1.12698 24.2844 0.918186 24.037 0.918186ZM13.8475 9.64046C13.8415 9.64046 13.8228 9.64221 13.8185 9.65793L10.728 15.202C10.6897 15.2718 10.6171 15.3155 10.5386 15.3155L8.01643 15.3129C7.93707 15.3129 7.86711 15.2701 7.82786 15.1985C7.78861 15.1277 7.78861 15.0421 7.82786 14.9713L12.6837 6.22895C12.7229 6.15819 12.7946 6.11451 12.8731 6.11451L13.8475 6.11538L14.8219 6.11451C14.9004 6.11451 14.973 6.15819 15.0113 6.22895L19.868 14.9722C19.9073 15.0438 19.9073 15.1286 19.868 15.1993C19.8288 15.271 19.758 15.3138 19.6795 15.3138L17.1573 15.3164C17.0796 15.3164 17.0071 15.2727 16.9678 15.2028L13.8774 9.65881C13.868 9.64221 13.8535 9.64046 13.8475 9.64046C13.8484 9.64046 13.8475 9.64046 13.8475 9.64046Z" fill="white"/>
</svg>
