<?xml version="1.0" encoding="utf-8"?>
<!-- Generator: Adobe Illustrator 23.0.3, SVG Export Plug-In . SVG Version: 6.00 Build 0)  -->
<svg version="1.1" id="Layer_1" xmlns="http://www.w3.org/2000/svg" xmlns:xlink="http://www.w3.org/1999/xlink" x="0px" y="0px"
	 viewBox="0 0 141.81 105.33" style="enable-background:new 0 0 141.81 105.33;" xml:space="preserve">
<style type="text/css">
	.st0{fill:#FFFFFF;}
</style>
<path class="st0" d="M84.55,1.31C84.1,0.5,83.25,0,82.33,0L70.91,0.01h0h0L59.48,0c-0.92,0-1.77,0.5-2.22,1.31L0.34,101.39
	c-0.46,0.82-0.46,1.79,0,2.6c0.46,0.82,1.29,1.31,2.21,1.31l29.56,0.03c0.91,0,1.76-0.5,2.22-1.3l36.22-63.46
	c0.05-0.18,0.27-0.2,0.34-0.2c0,0,0,0,0,0s0,0,0,0c0.07,0,0.24,0.02,0.34,0.2l36.22,63.46c0.45,0.8,1.31,1.3,2.22,1.3l29.56-0.03
	c0.93,0,1.75-0.49,2.21-1.31c0.46-0.81,0.46-1.79,0-2.6L84.55,1.31z"/>
</svg>
