<svg width="152" height="106" viewBox="0 0 152 106" fill="none" xmlns="http://www.w3.org/2000/svg">
<path d="M31.5805 39.225L6.39093 1.85441H2.66406V45.4854H6.39093V8.14617L31.549 45.4854H35.2479V1.85441H31.5805V39.225Z" fill="white"/>
<path d="M73.6004 42.3692H50.0645V24.5675H70.5343V21.4512H50.0645V4.99855H73.4501V1.85441H46.3691V45.4854H73.6004V42.3692Z" fill="white"/>
<path d="M88.9488 17.6274C89.5152 16.627 90.578 16.0065 91.7282 16.0065H91.8261L82.3761 1.85441H77.957L88.788 17.9097L88.9488 17.6274Z" fill="white"/>
<path d="M97.5907 16.01C98.7375 16.01 99.8038 16.6305 100.363 17.6239L100.576 17.9934L111.442 1.85441H107.023L97.5732 16.01H97.5907Z" fill="white"/>
<path d="M115.078 1.85441V4.99855H130.049V45.4854H133.744V4.99855H148.742V1.85441H115.078Z" fill="white"/>
<path d="M85.2738 45.1543L94.57 28.9177C94.584 28.8724 94.6399 28.8654 94.6574 28.8654C94.6749 28.8654 94.7169 28.8689 94.7448 28.9177L100.94 39.7409L104.038 45.1543C104.097 45.2554 104.181 45.339 104.279 45.3983C104.377 45.4575 104.492 45.4889 104.607 45.4889L112.194 45.4819C112.432 45.4819 112.645 45.3564 112.76 45.1473C112.802 45.0706 112.813 44.987 112.827 44.9033C112.841 44.8022 112.827 44.7011 112.795 44.6035C112.781 44.5617 112.785 44.5199 112.764 44.4815L98.157 18.8718C98.157 18.8718 98.157 18.8718 98.1535 18.8683C98.0941 18.7672 98.0137 18.6836 97.9158 18.6243C97.8843 18.6069 97.8459 18.6104 97.8144 18.5964C97.741 18.5685 97.6676 18.5337 97.5872 18.5337L94.6539 18.5372H93.5107L91.7207 18.5337C91.6438 18.5337 91.5808 18.565 91.5109 18.5894C91.4725 18.6034 91.427 18.5999 91.392 18.6208C91.2942 18.6801 91.2102 18.7637 91.1508 18.8648L90.3642 20.2417L79.694 38.9497L76.544 44.4711C76.5021 44.5478 76.4916 44.6314 76.4776 44.7151C76.4741 44.7464 76.4531 44.7743 76.4531 44.8022C76.4531 44.8266 76.4706 44.8475 76.4706 44.8719C76.4811 44.9626 76.4951 45.0532 76.5405 45.1334C76.6 45.2379 76.6839 45.3216 76.7783 45.3774C76.8762 45.4331 76.988 45.4645 77.1069 45.4645L84.6935 45.4715C84.9417 45.4854 85.1585 45.3564 85.2738 45.1543Z" fill="white"/>
<path d="M65.2302 87.9766C65.2302 90.8349 64.5554 92.9159 63.2024 94.2265C61.8494 95.5336 59.951 96.189 57.5072 96.189C55.0809 96.189 53.1825 95.5336 51.812 94.2265C50.4381 92.9193 49.7528 90.8349 49.7528 87.9766V59.1774H40.7363V87.9766C40.7363 90.4933 41.1524 92.7172 41.9844 94.6448C42.8165 96.5724 43.9737 98.1863 45.4561 99.483C46.9385 100.783 48.7075 101.763 50.7597 102.421C52.8154 103.08 55.0634 103.411 57.5072 103.411C59.93 103.411 62.1711 103.08 64.2233 102.421C66.279 101.763 68.048 100.783 69.5304 99.483C71.0128 98.1863 72.177 96.5724 73.016 94.6448C73.8586 92.7172 74.2781 90.4933 74.2781 87.9766V59.1774H65.2302V87.9766Z" fill="white"/>
<path d="M110.841 63.2696C109.428 61.9799 107.705 60.976 105.67 60.258C103.635 59.5399 101.328 59.1809 98.7405 59.1809H81.6689V102.815H90.6854V87.4398H98.7405C101.328 87.4398 103.635 87.1156 105.67 86.4673C107.705 85.8189 109.428 84.8952 110.841 83.6961C112.253 82.497 113.33 81.0504 114.071 79.3529C114.812 77.6553 115.183 75.7486 115.183 73.6293C115.183 71.5518 114.812 69.6276 114.071 67.8604C113.33 66.0861 112.253 64.5559 110.841 63.2696ZM105.656 76.2889C105.376 77.0871 104.939 77.7738 104.348 78.342C103.757 78.9137 102.995 79.3563 102.065 79.677C101.135 79.9977 100.027 80.1581 98.744 80.1581H90.6889V66.4626H98.744C100.027 66.4626 101.135 66.6613 102.065 67.0621C102.995 67.463 103.757 67.9963 104.348 68.6656C104.939 69.3348 105.373 70.1052 105.656 70.9731C105.936 71.8411 106.075 72.7474 106.075 73.685C106.075 74.6227 105.936 75.4907 105.656 76.2889Z" fill="white"/>
</svg>
